<svg xmlns="http://www.w3.org/2000/svg" width="1920" height="958" viewBox="0 0 1920 958" fill="none">
<rect width="1920" height="958" fill="#F5F9FE"/>
<path d="M1678.43 170.088C1678.43 197.545 1656.17 219.803 1628.72 219.803C1601.26 219.803 1579 197.545 1579 170.088C1579 142.631 1601.26 120.373 1628.72 120.373C1656.17 120.373 1678.43 142.631 1678.43 170.088Z" fill="white"/>
<path d="M1778.44 153.902C1778.44 190.298 1748.93 219.803 1712.54 219.803C1676.14 219.803 1646.64 190.298 1646.64 153.902C1646.64 117.505 1676.14 88 1712.54 88C1748.93 88 1778.44 117.505 1778.44 153.902Z" fill="white"/>
<path d="M1827.58 162.284C1827.58 194.051 1801.82 219.803 1770.06 219.803C1738.29 219.803 1712.54 194.051 1712.54 162.284C1712.54 130.517 1738.29 104.764 1770.06 104.764C1801.82 104.764 1827.58 130.517 1827.58 162.284Z" fill="white"/>
<path d="M1628.72 170.088H1778.44V219.803H1628.72V170.088Z" fill="white"/>
<path d="M1369.56 330.522C1369.56 350.007 1353.77 365.804 1334.28 365.804C1314.8 365.804 1299 350.007 1299 330.522C1299 311.036 1314.8 295.24 1334.28 295.24C1353.77 295.24 1369.56 311.036 1369.56 330.522Z" fill="white"/>
<path d="M1440.54 319.035C1440.54 344.864 1419.6 365.804 1393.77 365.804C1367.94 365.804 1347 344.864 1347 319.035C1347 293.205 1367.94 272.266 1393.77 272.266C1419.6 272.266 1440.54 293.205 1440.54 319.035Z" fill="white"/>
<path d="M1475.41 324.983C1475.41 347.528 1457.13 365.804 1434.59 365.804C1412.04 365.804 1393.77 347.528 1393.77 324.983C1393.77 302.439 1412.04 284.163 1434.59 284.163C1457.13 284.163 1475.41 302.439 1475.41 324.983Z" fill="white"/>
<path d="M1334.28 330.522H1440.54V365.804L1334.28 365.804L1334.28 330.522Z" fill="white"/>
<path fill-rule="evenodd" clip-rule="evenodd" d="M0 390H141H240.5H255V388.951C303.08 381.931 340 340.527 340 290.5C340 235.548 295.452 191 240.5 191C233.261 191 226.203 191.773 219.403 193.241C198.97 173.878 171.372 162 141 162C94.9705 162 55.3125 189.28 37.312 228.554C26.1492 222.429 13.4793 218.709 0 218.091V390Z" fill="white"/>
</svg>