<svg width="88" height="88" viewBox="0 0 88 88" fill="none" xmlns="http://www.w3.org/2000/svg">
<path d="M44.0032 0C32.0534 0 30.5537 0.0522508 25.8604 0.265834C21.1761 0.480334 17.9788 1.22192 15.1811 2.31C12.2871 3.43383 9.83227 4.93717 7.38658 7.38375C4.93905 9.82942 3.4357 12.2842 2.30819 15.1772C1.21735 17.9758 0.474838 21.1741 0.264003 25.8564C0.0550007 30.5498 0 32.0503 0 44C0 55.9497 0.0531681 57.4448 0.265837 62.1381C0.481256 66.8223 1.22285 70.0196 2.31002 72.8173C3.43479 75.7112 4.93814 78.166 7.38474 80.6117C9.82952 83.0592 12.2844 84.5662 15.1765 85.69C17.976 86.7781 21.1743 87.5197 25.8576 87.7342C30.551 87.9478 32.0498 88 43.9986 88C55.9493 88 57.4444 87.9478 62.1378 87.7342C66.822 87.5197 70.0231 86.7781 72.8226 85.69C75.7156 84.5662 78.1668 83.0592 80.6116 80.6117C83.0591 78.166 84.5625 75.7112 85.69 72.8182C86.7717 70.0196 87.5142 66.8213 87.7342 62.139C87.945 57.4457 88 55.9497 88 44C88 32.0503 87.945 30.5507 87.7342 25.8573C87.5142 21.1732 86.7717 17.9758 85.69 15.1782C84.5625 12.2842 83.0591 9.82942 80.6116 7.38375C78.1641 4.93625 75.7166 3.43292 72.8199 2.31C70.0148 1.22192 66.8156 0.480334 62.1314 0.265834C57.438 0.0522508 55.9438 0 43.9904 0H44.0032ZM40.056 7.92917C41.2275 7.92733 42.5347 7.92917 44.0032 7.92917C55.7513 7.92917 57.1438 7.97133 61.7831 8.18217C66.0731 8.37833 68.4015 9.09517 69.9525 9.69742C72.0058 10.4949 73.4698 11.4483 75.0089 12.9883C76.5489 14.5283 77.5022 15.9949 78.3016 18.0483C78.9038 19.5974 79.6216 21.9257 79.8168 26.2157C80.0277 30.8541 80.0735 32.2474 80.0735 43.9899C80.0735 55.7324 80.0277 57.1258 79.8168 61.7641C79.6207 66.0541 78.9038 68.3824 78.3016 69.9316C77.5041 71.9849 76.5489 73.447 75.0089 74.9861C73.4689 76.5261 72.0068 77.4794 69.9525 78.2769C68.4033 78.8819 66.0731 79.5969 61.7831 79.7931C57.1447 80.0039 55.7513 80.0498 44.0032 80.0498C32.2542 80.0498 30.8617 80.0039 26.2234 79.7931C21.9333 79.5951 19.605 78.8783 18.053 78.276C15.9997 77.4785 14.533 76.5252 12.993 74.9852C11.453 73.4452 10.4996 71.9822 9.70027 69.9279C9.09801 68.3788 8.38026 66.0504 8.185 61.7604C7.97417 57.1221 7.932 55.7288 7.932 43.9789C7.932 32.2291 7.97417 30.8431 8.185 26.2048C8.38117 21.9148 9.09801 19.5864 9.70027 18.0354C10.4978 15.9821 11.453 14.5154 12.993 12.9754C14.533 11.4354 15.9997 10.4821 18.053 9.68275C19.604 9.07775 21.9333 8.36275 26.2234 8.16567C30.2824 7.98233 31.8554 7.92733 40.056 7.91817V7.92917Z" fill="url(#paint0_radial_196_780)"/>
<path d="M67.3957 15.1269C66.3513 15.1269 65.3304 15.4366 64.462 16.0169C63.5937 16.5971 62.9169 17.4219 62.5174 18.3868C62.1178 19.3517 62.0133 20.4134 62.2172 21.4377C62.4211 22.4619 62.9241 23.4027 63.6628 24.1411C64.4014 24.8794 65.3423 25.3822 66.3667 25.5857C67.391 25.7892 68.4528 25.6844 69.4175 25.2845C70.3823 24.8846 71.2068 24.2075 71.7868 23.339C72.3667 22.4705 72.6761 21.4494 72.6757 20.4051C72.6757 17.4901 70.3107 15.1251 67.3957 15.1251V15.1269Z" fill="url(#paint1_radial_196_780)"/>
<path fill-rule="evenodd" clip-rule="evenodd" d="M43.9086 21.2961C31.4299 21.2961 21.3125 31.4133 21.3125 43.8919C21.3125 56.3705 31.4299 66.4832 43.9086 66.4832C56.3873 66.4832 66.5019 56.3705 66.5019 43.8919C66.5019 31.4133 56.3873 21.2961 43.9086 21.2961ZM44 58.4376C51.9736 58.4376 58.4375 51.9737 58.4375 44.0001C58.4375 36.0265 51.9736 29.5626 44 29.5626C36.0264 29.5626 29.5625 36.0265 29.5625 44.0001C29.5625 51.9737 36.0264 58.4376 44 58.4376Z" fill="url(#paint2_radial_196_780)"/>
<path d="M44.0032 0C32.0534 0 30.5537 0.0522508 25.8604 0.265834C21.1761 0.480334 17.9788 1.22192 15.1811 2.31C12.2871 3.43383 9.83227 4.93717 7.38658 7.38375C4.93905 9.82942 3.4357 12.2842 2.30819 15.1772C1.21735 17.9758 0.474838 21.1741 0.264003 25.8564C0.0550007 30.5498 0 32.0503 0 44C0 55.9497 0.0531681 57.4448 0.265837 62.1381C0.481256 66.8223 1.22285 70.0196 2.31002 72.8173C3.43479 75.7112 4.93814 78.166 7.38474 80.6117C9.82952 83.0592 12.2844 84.5662 15.1765 85.69C17.976 86.7781 21.1743 87.5197 25.8576 87.7342C30.551 87.9478 32.0498 88 43.9986 88C55.9493 88 57.4444 87.9478 62.1378 87.7342C66.822 87.5197 70.0231 86.7781 72.8226 85.69C75.7156 84.5662 78.1668 83.0592 80.6116 80.6117C83.0591 78.166 84.5625 75.7112 85.69 72.8182C86.7717 70.0196 87.5142 66.8213 87.7342 62.139C87.945 57.4457 88 55.9497 88 44C88 32.0503 87.945 30.5507 87.7342 25.8573C87.5142 21.1732 86.7717 17.9758 85.69 15.1782C84.5625 12.2842 83.0591 9.82942 80.6116 7.38375C78.1641 4.93625 75.7166 3.43292 72.8199 2.31C70.0148 1.22192 66.8156 0.480334 62.1314 0.265834C57.438 0.0522508 55.9438 0 43.9904 0H44.0032ZM40.056 7.92917C41.2275 7.92733 42.5347 7.92917 44.0032 7.92917C55.7513 7.92917 57.1438 7.97133 61.7831 8.18217C66.0731 8.37833 68.4015 9.09517 69.9525 9.69742C72.0058 10.4949 73.4698 11.4483 75.0089 12.9883C76.5489 14.5283 77.5022 15.9949 78.3016 18.0483C78.9038 19.5974 79.6216 21.9257 79.8168 26.2157C80.0277 30.8541 80.0735 32.2474 80.0735 43.9899C80.0735 55.7324 80.0277 57.1258 79.8168 61.7641C79.6207 66.0541 78.9038 68.3824 78.3016 69.9316C77.5041 71.9849 76.5489 73.447 75.0089 74.9861C73.4689 76.5261 72.0068 77.4794 69.9525 78.2769C68.4033 78.8819 66.0731 79.5969 61.7831 79.7931C57.1447 80.0039 55.7513 80.0498 44.0032 80.0498C32.2542 80.0498 30.8617 80.0039 26.2234 79.7931C21.9333 79.5951 19.605 78.8783 18.053 78.276C15.9997 77.4785 14.533 76.5252 12.993 74.9852C11.453 73.4452 10.4996 71.9822 9.70027 69.9279C9.09801 68.3788 8.38026 66.0504 8.185 61.7604C7.97417 57.1221 7.932 55.7288 7.932 43.9789C7.932 32.2291 7.97417 30.8431 8.185 26.2048C8.38117 21.9148 9.09801 19.5864 9.70027 18.0354C10.4978 15.9821 11.453 14.5154 12.993 12.9754C14.533 11.4354 15.9997 10.4821 18.053 9.68275C19.604 9.07775 21.9333 8.36275 26.2234 8.16567C30.2824 7.98233 31.8554 7.92733 40.056 7.91817V7.92917Z" fill="url(#paint3_radial_196_780)"/>
<path d="M67.3957 15.1269C66.3513 15.1269 65.3304 15.4366 64.462 16.0169C63.5937 16.5971 62.9169 17.4219 62.5174 18.3868C62.1178 19.3517 62.0133 20.4134 62.2172 21.4377C62.4211 22.4619 62.9241 23.4027 63.6628 24.1411C64.4014 24.8794 65.3423 25.3822 66.3667 25.5857C67.391 25.7892 68.4528 25.6844 69.4175 25.2845C70.3823 24.8846 71.2068 24.2075 71.7868 23.339C72.3667 22.4705 72.6761 21.4494 72.6757 20.4051C72.6757 17.4901 70.3107 15.1251 67.3957 15.1251V15.1269Z" fill="url(#paint4_radial_196_780)"/>
<path fill-rule="evenodd" clip-rule="evenodd" d="M43.9086 21.2961C31.4299 21.2961 21.3125 31.4133 21.3125 43.8919C21.3125 56.3705 31.4299 66.4832 43.9086 66.4832C56.3873 66.4832 66.5019 56.3705 66.5019 43.8919C66.5019 31.4133 56.3873 21.2961 43.9086 21.2961ZM44 58.4376C51.9736 58.4376 58.4375 51.9737 58.4375 44.0001C58.4375 36.0265 51.9736 29.5626 44 29.5626C36.0264 29.5626 29.5625 36.0265 29.5625 44.0001C29.5625 51.9737 36.0264 58.4376 44 58.4376Z" fill="url(#paint5_radial_196_780)"/>
<defs>
<radialGradient id="paint0_radial_196_780" cx="0" cy="0" r="1" gradientUnits="userSpaceOnUse" gradientTransform="translate(23.3751 94.7778) rotate(-90) scale(87.2145 81.1163)">
<stop stop-color="#FFDD55"/>
<stop offset="0.1" stop-color="#FFDD55"/>
<stop offset="0.5" stop-color="#FF543E"/>
<stop offset="1" stop-color="#C837AB"/>
</radialGradient>
<radialGradient id="paint1_radial_196_780" cx="0" cy="0" r="1" gradientUnits="userSpaceOnUse" gradientTransform="translate(23.3751 94.7778) rotate(-90) scale(87.2145 81.1163)">
<stop stop-color="#FFDD55"/>
<stop offset="0.1" stop-color="#FFDD55"/>
<stop offset="0.5" stop-color="#FF543E"/>
<stop offset="1" stop-color="#C837AB"/>
</radialGradient>
<radialGradient id="paint2_radial_196_780" cx="0" cy="0" r="1" gradientUnits="userSpaceOnUse" gradientTransform="translate(23.3751 94.7778) rotate(-90) scale(87.2145 81.1163)">
<stop stop-color="#FFDD55"/>
<stop offset="0.1" stop-color="#FFDD55"/>
<stop offset="0.5" stop-color="#FF543E"/>
<stop offset="1" stop-color="#C837AB"/>
</radialGradient>
<radialGradient id="paint3_radial_196_780" cx="0" cy="0" r="1" gradientUnits="userSpaceOnUse" gradientTransform="translate(-14.7405 6.33937) rotate(78.6806) scale(38.9852 160.699)">
<stop stop-color="#3771C8"/>
<stop offset="0.128" stop-color="#3771C8"/>
<stop offset="1" stop-color="#6600FF" stop-opacity="0"/>
</radialGradient>
<radialGradient id="paint4_radial_196_780" cx="0" cy="0" r="1" gradientUnits="userSpaceOnUse" gradientTransform="translate(-14.7405 6.33937) rotate(78.6806) scale(38.9852 160.699)">
<stop stop-color="#3771C8"/>
<stop offset="0.128" stop-color="#3771C8"/>
<stop offset="1" stop-color="#6600FF" stop-opacity="0"/>
</radialGradient>
<radialGradient id="paint5_radial_196_780" cx="0" cy="0" r="1" gradientUnits="userSpaceOnUse" gradientTransform="translate(-14.7405 6.33937) rotate(78.6806) scale(38.9852 160.699)">
<stop stop-color="#3771C8"/>
<stop offset="0.128" stop-color="#3771C8"/>
<stop offset="1" stop-color="#6600FF" stop-opacity="0"/>
</radialGradient>
</defs>
</svg>
