<svg width="88" height="88" viewBox="0 0 88 88" fill="none" xmlns="http://www.w3.org/2000/svg">
<path d="M6 77.0161H20V43.0161L0 28.0161V71.0161C0 74.3311 2.685 77.0161 6 77.0161Z" fill="#4285F4"/>
<path d="M68 77.0161H82C85.315 77.0161 88 74.3311 88 71.0161V28.0161L68 43.0161V77.0161Z" fill="#34A853"/>
<path d="M68 17.0162V43.0162L88 28.0162V20.0162C88 12.6012 79.535 8.36617 73.6 12.8162L68 17.0162Z" fill="#FBBC04"/>
<path fill-rule="evenodd" clip-rule="evenodd" d="M20 43.0161V17.0161L44 35.0161L68 17.0161V43.0161L44 61.0161L20 43.0161Z" fill="#EA4335"/>
<path d="M0 20.0162V28.0162L20 43.0162V17.0162L14.4 12.8162C8.465 8.36617 0 12.6012 0 20.0162Z" fill="#C5221F"/>
</svg>
