<svg width="21" height="20" viewBox="0 0 21 20" fill="none" xmlns="http://www.w3.org/2000/svg">
<path d="M7.65489 6.86345L9.81989 2.50345C9.88291 2.37727 9.97984 2.27114 10.0998 2.19696C10.2198 2.12279 10.358 2.0835 10.4991 2.0835C10.6401 2.0835 10.7784 2.12279 10.8983 2.19696C11.0183 2.27114 11.1152 2.37727 11.1782 2.50345L13.3432 6.86345L18.1832 7.56678C18.3228 7.58614 18.4542 7.64436 18.5623 7.73479C18.6704 7.82522 18.7509 7.94423 18.7946 8.07822C18.8383 8.21221 18.8435 8.35579 18.8095 8.49257C18.7755 8.62936 18.7037 8.75383 18.6024 8.85178L15.1007 12.2434L15.9274 17.0351C16.0332 17.6501 15.3832 18.1184 14.8274 17.8284L10.4991 15.5651L6.16989 17.8284C5.61489 18.1193 4.96489 17.6501 5.07073 17.0343L5.89739 12.2426L2.39573 8.85095C2.29488 8.75293 2.22356 8.62858 2.18986 8.49204C2.15617 8.3555 2.16145 8.21225 2.20512 8.07857C2.24878 7.94489 2.32907 7.82613 2.43687 7.73581C2.54466 7.64548 2.67563 7.58721 2.81489 7.56761L7.65489 6.86345Z" fill="#7F98C6" stroke="#7F98C6" stroke-width="1.25" stroke-linecap="round" stroke-linejoin="round"/>
</svg>
