<svg xmlns="http://www.w3.org/2000/svg" width="38px" height="38px" viewBox="0 0 48 48" fill="none">
<path d="M24 44C35.046 44 44 35.046 44 24C44 12.954 35.046 4 24 4C12.954 4 4 12.954 4 24C4 35.046 12.954 44 24 44Z" stroke="black" stroke-width="2.5" stroke-linecap="round" stroke-linejoin="round"/>
<path d="M28.666 38V34.274C28.716 33.654 28.63 33.034 28.414 32.448C28.1955 31.8622 27.8546 31.3297 27.414 30.886C31.6 30.432 36 28.886 36 21.798C35.9962 19.9761 35.2782 18.2283 34 16.93C34.6107 15.3466 34.5676 13.5855 33.88 12.034C33.88 12.034 32.306 11.58 28.666 13.956C25.6076 13.1495 22.3924 13.1495 19.334 13.956C15.694 11.58 14.12 12.036 14.12 12.036C13.4336 13.5864 13.3904 15.3458 14 16.928C12.7127 18.2357 11.9939 19.9989 12 21.834C12 28.872 16.4 30.416 20.586 30.922C20.1503 31.3618 19.8123 31.8886 19.594 32.468C19.3764 33.043 19.2876 33.6589 19.334 34.272V38" stroke="black" stroke-width="2.5" stroke-linecap="round" stroke-linejoin="round"/>
<path d="M19.334 35.4041C15.334 36.6661 12 35.4041 10 31.5081" stroke="black" stroke-width="2.5" stroke-linecap="round" stroke-linejoin="round"/>
</svg>