<svg width="21" height="20" viewBox="0 0 21 20" fill="none" xmlns="http://www.w3.org/2000/svg">
<path d="M17.1673 7.5L15.5048 16.955C15.437 17.3411 15.2352 17.691 14.935 17.9431C14.6347 18.1952 14.2552 18.3334 13.8632 18.3333H7.13815C6.7461 18.3334 6.36659 18.1952 6.06634 17.9431C5.76608 17.691 5.56431 17.3411 5.49648 16.955L3.83398 7.5" fill="#FF6D57"/>
<path d="M18 4.99984H13.3125M13.3125 4.99984V3.33317C13.3125 2.89114 13.1369 2.46722 12.8243 2.15466C12.5118 1.8421 12.0879 1.6665 11.6458 1.6665H9.35417C8.91214 1.6665 8.48822 1.8421 8.17566 2.15466C7.86309 2.46722 7.6875 2.89114 7.6875 3.33317V4.99984M13.3125 4.99984H7.6875M3 4.99984H7.6875M17.1667 7.49984L15.5042 16.9548C15.4363 17.341 15.2346 17.6908 14.9343 17.9429C14.6341 18.195 14.2545 18.3332 13.8625 18.3332H7.1375C6.74545 18.3332 6.36594 18.195 6.06569 17.9429C5.76543 17.6908 5.56366 17.341 5.49583 16.9548L3.83333 7.49984H17.1667Z" stroke="#FF6D57" stroke-width="1.5" stroke-linecap="round" stroke-linejoin="round"/>
</svg>
