<svg width="180" height="20" viewBox="0 0 180 20" fill="none" xmlns="http://www.w3.org/2000/svg">
<g clip-path="url(#clip0_9_114)">
<path d="M170.147 0.187988H132.285C126.972 0.187988 122.665 4.49512 122.665 9.80858C122.665 15.122 126.972 19.4292 132.285 19.4292H170.147C175.46 19.4292 179.768 15.122 179.768 9.80858C179.768 4.49512 175.46 0.187988 170.147 0.187988ZM141.221 11.0869C141.221 13.8437 139.218 15.8045 136.291 15.8045C133.363 15.8045 131.36 13.9723 131.36 11.0869V4.01051H133.465V10.9361C133.465 12.5655 134.466 13.8709 136.291 13.8709C138.115 13.8709 139.107 12.5803 139.107 10.9435V4.01051H141.221V11.0869ZM153.67 15.5523H151.863L145.575 7.48193V15.5523H143.461V4.01051H145.276L151.563 12.0883V4.01051H153.668V15.5523H153.67ZM158.239 15.5523H156.125V4.01051H158.239V15.5523ZM166.547 15.5523H164.621L159.785 4.00309H162.017L165.573 12.7954L165.607 12.7781L169.155 4.00309H171.396L166.549 15.5523H166.547Z" fill="white"/>
<path d="M21.2959 6.39404C17.6984 6.39404 14.7833 9.30915 14.7833 12.9067C14.7833 16.5042 17.6984 19.4193 21.2959 19.4193C24.8934 19.4193 27.8085 16.5042 27.8085 12.9067C27.8085 9.30915 24.8934 6.39404 21.2959 6.39404ZM21.2959 16.8157C19.1374 16.8157 17.3868 15.0652 17.3868 12.9067C17.3868 10.7482 19.1374 8.99761 21.2959 8.99761C23.4544 8.99761 25.205 10.7482 25.205 12.9067C25.205 15.0652 23.4544 16.8157 21.2959 16.8157Z" fill="white"/>
<path d="M35.9506 6.39404C32.353 6.39404 29.4379 9.30915 29.4379 12.9067C29.4379 16.5042 32.353 19.4193 35.9506 19.4193C39.5481 19.4193 42.4632 16.5042 42.4632 12.9067C42.4632 9.30915 39.5481 6.39404 35.9506 6.39404ZM35.9506 16.8157C33.792 16.8157 32.0415 15.0652 32.0415 12.9067C32.0415 10.7482 33.792 8.99761 35.9506 8.99761C38.1091 8.99761 39.8596 10.7482 39.8596 12.9067C39.8596 15.0652 38.1091 16.8157 35.9506 16.8157Z" fill="white"/>
<path d="M101.482 6.39404C97.8849 6.39404 94.9698 9.30915 94.9698 12.9067C94.9698 16.5042 97.8849 19.4193 101.482 19.4193C105.08 19.4193 107.995 16.5042 107.995 12.9067C107.995 9.30915 105.08 6.39404 101.482 6.39404ZM101.482 16.8157C99.3239 16.8157 97.5734 15.0652 97.5734 12.9067C97.5734 10.7482 99.3239 8.99761 101.482 8.99761C103.641 8.99761 105.391 10.7482 105.391 12.9067C105.391 15.0652 103.641 16.8157 101.482 16.8157Z" fill="white"/>
<path d="M44.4189 12.5826V19.0952H47.025V12.5826C47.025 10.785 48.4838 9.32626 50.2813 9.32626H51.5843V6.72021H50.2813C47.0448 6.72021 44.4189 9.34357 44.4189 12.5826Z" fill="white"/>
<path d="M65.9151 6.72021C64.3574 6.72021 62.9629 7.40263 62.006 8.4856C61.0516 7.40263 59.6546 6.72021 58.0969 6.72021C55.2189 6.72021 52.8873 9.05428 52.8873 11.9298V19.0952H55.4934V11.9298C55.4934 10.4908 56.6604 9.32379 58.0994 9.32379C59.5384 9.32379 60.7055 10.4908 60.7055 11.9298V19.0952H63.3115V11.9298C63.3115 10.4908 64.4785 9.32379 65.9176 9.32379C67.3566 9.32379 68.5236 10.4908 68.5236 11.9298V19.0952H71.1296V11.9298C71.1296 9.05181 68.7956 6.72021 65.92 6.72021H65.9151Z" fill="white"/>
<path d="M118.486 8.40401C118.407 8.31994 118.328 8.23587 118.244 8.15675C118.199 8.11472 118.152 8.07269 118.105 8.03065C118.021 7.95648 117.935 7.88478 117.846 7.81554C117.794 7.77598 117.742 7.73642 117.69 7.69934C117.601 7.63505 117.509 7.57571 117.415 7.51637C117.359 7.48175 117.302 7.44467 117.242 7.41252C117.148 7.35813 117.052 7.30868 116.956 7.2617C116.894 7.23203 116.832 7.19989 116.77 7.17269C116.671 7.12818 116.57 7.08862 116.466 7.05153C116.402 7.02681 116.337 7.00208 116.271 6.97983C116.164 6.94521 116.056 6.91802 115.947 6.88835C115.88 6.87104 115.816 6.85126 115.749 6.83642C115.63 6.8117 115.507 6.79439 115.385 6.77708C115.326 6.76967 115.269 6.7573 115.21 6.74988C115.027 6.7301 114.844 6.72021 114.656 6.72021C114.468 6.72021 114.285 6.7301 114.102 6.74988C114.043 6.7573 113.986 6.76719 113.927 6.77708C113.806 6.79439 113.682 6.8117 113.563 6.83642C113.496 6.85126 113.432 6.87104 113.365 6.88835C113.257 6.91554 113.148 6.94521 113.041 6.97983C112.975 7.00208 112.91 7.02681 112.846 7.05153C112.745 7.08862 112.641 7.12818 112.542 7.17269C112.48 7.19989 112.418 7.23203 112.357 7.2617C112.26 7.30868 112.164 7.3606 112.07 7.41252C112.01 7.44714 111.954 7.48175 111.897 7.51637C111.803 7.57571 111.711 7.63505 111.622 7.69934C111.57 7.73642 111.518 7.77598 111.466 7.81554C111.377 7.88478 111.291 7.95648 111.207 8.03065C111.16 8.07269 111.113 8.11472 111.068 8.15675C110.984 8.23587 110.905 8.31994 110.826 8.40401C109.971 9.33368 109.444 10.5699 109.444 11.9323V19.0977H112.05V11.9323C112.05 10.4933 113.217 9.32626 114.656 9.32626C116.095 9.32626 117.262 10.4933 117.262 11.9323V19.0977H119.868V11.9323C119.868 10.5699 119.341 9.33368 118.486 8.40401Z" fill="white"/>
<path d="M88.4695 5.42973C87.6115 5.42973 86.7709 5.64979 86.0266 6.0627V0.207764H83.4206V19.0979H86.0266V10.4786C86.0266 9.13111 87.122 8.03578 88.4695 8.03578C89.817 8.03578 90.9123 9.13111 90.9123 10.4786V19.0979H93.5184V10.4786C93.5184 7.69457 91.2536 5.42973 88.4695 5.42973Z" fill="white"/>
<path d="M78.3915 0.247314H75.7854V5.7833H72.6923V8.38934H75.7854V19.1349H78.3915V8.38934H81.4871V5.7833H78.3915V0.247314Z" fill="white"/>
<path d="M13.1711 7.6994C13.1711 4.10187 10.256 1.18677 6.65849 1.18677C3.06096 1.18677 0.326338 3.92632 0.155734 7.37055C0.150788 7.47934 0.148315 7.58814 0.148315 7.69693C0.148315 7.80572 0.150788 7.91451 0.155734 8.0233C0.326338 11.3785 3.10052 14.0464 6.4953 14.0464C8.0431 14.0464 9.46233 13.4925 10.5651 12.5703V13.5568C10.5404 13.9648 10.4192 15.0156 9.61068 15.8587C8.45849 17.0604 6.66838 17.0406 5.49887 16.6376C4.2725 16.2148 3.58513 15.3247 3.32057 14.939L0.897492 15.9428C1.69612 17.4535 3.07085 18.6131 4.73239 19.1274C4.89557 19.1769 5.63733 19.4068 6.65849 19.4167C7.37799 19.4242 9.69969 19.4489 11.4527 17.7008C13.0426 16.1159 13.1563 14.0835 13.1687 13.5568V7.69693L13.1711 7.6994ZM6.65601 11.606C4.4975 11.606 2.74942 9.85792 2.74942 7.6994C2.74942 5.54088 4.4975 3.79281 6.65601 3.79281C8.81453 3.79281 10.5626 5.54088 10.5626 7.6994C10.5626 9.85792 8.81453 11.606 6.65601 11.606Z" fill="white"/>
</g>
<defs>
<clipPath id="clip0_9_114">
<rect width="180" height="19.533" fill="white"/>
</clipPath>
</defs>
</svg>
